<svg xmlns="http://www.w3.org/2000/svg" version="1.1" width="512px" height="512px" style="shape-rendering:geometricPrecision; text-rendering:geometricPrecision; image-rendering:optimizeQuality; fill-rule:evenodd; clip-rule:evenodd" xmlns:xlink="http://www.w3.org/1999/xlink">
<g><path style="opacity:0.955" fill="#030000" d="M 85.5,279.5 C 85.281,280.675 85.6143,281.675 86.5,282.5C 90.3973,284.46 92.3973,287.627 92.5,292C 91.3443,295.806 90.3443,299.639 89.5,303.5C 88.0762,305.515 87.4095,307.848 87.5,310.5C 84.3685,318.688 82.7018,327.354 82.5,336.5C 79.4286,359.291 82.0953,381.291 90.5,402.5C 91.8221,402.67 92.9887,402.337 94,401.5C 101.31,390.37 109.144,379.703 117.5,369.5C 118.906,369.027 119.573,368.027 119.5,366.5C 138.107,342.228 157.44,318.561 177.5,295.5C 178.906,295.027 179.573,294.027 179.5,292.5C 185.492,285.175 191.825,278.175 198.5,271.5C 199.906,271.027 200.573,270.027 200.5,268.5C 257.327,206.509 317.66,148.009 381.5,93C 388.92,90.9618 393.92,93.4618 396.5,100.5C 396.663,102.857 396.497,105.19 396,107.5C 395.005,108.066 394.172,108.733 393.5,109.5C 384.526,117.471 375.526,125.471 366.5,133.5C 364.973,133.427 363.973,134.094 363.5,135.5C 322.007,172.321 282.007,210.988 243.5,251.5C 241.413,252.585 240.08,254.251 239.5,256.5C 191.542,306.468 147.542,359.802 107.5,416.5C 107.957,417.298 108.624,417.631 109.5,417.5C 110.287,419.104 111.62,419.771 113.5,419.5C 117.1,420.387 120.767,421.387 124.5,422.5C 132.784,424.517 141.117,424.85 149.5,423.5C 180.52,422.667 208.853,413.667 234.5,396.5C 235.711,395.726 235.711,394.893 234.5,394C 226.435,389.643 218.768,384.81 211.5,379.5C 202.682,373.878 202.349,367.712 210.5,361C 214.114,360.064 217.78,359.564 221.5,359.5C 228.386,359.603 235.053,358.936 241.5,357.5C 242.791,357.737 243.791,357.404 244.5,356.5C 249.844,356.666 255.177,356.499 260.5,356C 261.737,355.768 262.737,355.268 263.5,354.5C 265.833,354.5 268.167,354.5 270.5,354.5C 276.477,353.859 282.477,353.359 288.5,353C 289.056,352.617 289.389,352.117 289.5,351.5C 303.566,337.937 316.732,323.604 329,308.5C 344.071,288.693 358.404,268.359 372,247.5C 372.318,244.959 371.152,243.292 368.5,242.5C 357.122,239.582 346.122,235.915 335.5,231.5C 335.315,229.804 334.481,228.471 333,227.5C 331.773,222.938 332.607,218.938 335.5,215.5C 337.967,215.245 339.967,214.245 341.5,212.5C 344.373,212.198 347.039,211.531 349.5,210.5C 366.516,205.621 383.682,201.288 401,197.5C 415.876,169.531 429.21,140.865 441,111.5C 443.236,103.832 445.403,96.1656 447.5,88.5C 451.216,77.3262 451.383,65.9929 448,54.5C 446.961,53.2899 445.794,52.2899 444.5,51.5C 442.851,50.3515 441.351,49.0182 440,47.5C 431.231,44.4357 422.398,43.769 413.5,45.5C 407.17,45.2972 401.17,46.2972 395.5,48.5C 392.99,48.0535 390.99,48.7202 389.5,50.5C 383.918,50.8955 378.585,52.2289 373.5,54.5C 370.053,55.083 367.053,56.4163 364.5,58.5C 361.116,58.5168 358.116,59.5168 355.5,61.5C 352.053,62.083 349.053,63.4163 346.5,65.5C 337.224,68.8078 328.224,72.6411 319.5,77C 309.859,81.9956 300.192,86.9956 290.5,92C 282.252,112.515 274.086,133.015 266,153.5C 259.699,157.942 254.199,157.275 249.5,151.5C 249.435,148.572 248.768,145.905 247.5,143.5C 247.5,142.5 247.5,141.5 247.5,140.5C 247.451,136.922 246.785,133.589 245.5,130.5C 245.296,127.482 244.963,124.482 244.5,121.5C 242.323,121.586 240.323,122.253 238.5,123.5C 230.182,129.993 221.515,135.993 212.5,141.5C 205.202,147.291 198.202,153.291 191.5,159.5C 189.789,167.271 188.789,175.271 188.5,183.5C 187.108,192.745 186.108,202.079 185.5,211.5C 183.75,215.183 183.083,219.183 183.5,223.5C 182.997,229.562 182.163,235.562 181,241.5C 176.909,245.305 172.076,246.472 166.5,245C 158.876,233.585 151.376,222.085 144,210.5C 143.439,209.978 142.772,209.645 142,209.5C 131.314,220.858 122.147,233.358 114.5,247C 113.167,248 111.833,249 110.5,250C 106.387,250.134 102.387,250.301 98.5,250.5C 94.6348,246.007 93.8015,241.007 96,235.5C 107.598,217.222 120.765,200.055 135.5,184C 142.974,178.91 149.474,180.077 155,187.5C 157.748,192.666 160.748,197.666 164,202.5C 166.214,185.878 168.214,169.212 170,152.5C 171.041,149.887 172.541,147.554 174.5,145.5C 197.068,126.278 221.068,108.944 246.5,93.5C 249.833,92.1667 253.167,92.1667 256.5,93.5C 259.509,95.2099 261.842,97.5432 263.5,100.5C 266.429,93.5497 269.262,86.5497 272,79.5C 278.203,75.318 284.536,71.318 291,67.5C 320.819,51.7797 351.819,38.7797 384,28.5C 389.042,27.9145 393.876,26.7478 398.5,25C 416.453,20.8626 433.953,22.0293 451,28.5C 462.555,35.6575 469.555,45.6575 472,58.5C 472.776,67.8742 472.442,77.2075 471,86.5C 466.087,107.03 459.421,127.03 451,146.5C 440.467,169.233 429.133,191.567 417,213.5C 415.307,215.027 413.473,216.36 411.5,217.5C 402.1,219.943 392.766,222.443 383.5,225C 388.277,225.607 392.61,227.273 396.5,230C 400.377,233.322 401.877,237.489 401,242.5C 373.796,288.911 341.296,331.245 303.5,369.5C 300.536,372.646 296.87,374.146 292.5,374C 278.667,375.948 264.667,377.281 250.5,378C 256.22,381.522 261.553,385.522 266.5,390C 266.167,390.333 265.833,390.667 265.5,391C 266.804,391.804 267.471,392.971 267.5,394.5C 266.67,396.828 265.837,399.162 265,401.5C 230.237,429.338 190.404,444.004 145.5,445.5C 127.978,446.501 111.478,443.168 96,435.5C 79.761,458.295 64.761,481.961 51,506.5C 43.2039,512.472 36.5372,511.472 31,503.5C 30.3333,500.5 30.3333,497.5 31,494.5C 45.3213,469.194 60.8213,444.694 77.5,421C 67.2957,405.364 61.4624,388.197 60,369.5C 58.9991,341.838 62.6658,314.838 71,288.5C 74.0403,282.649 78.8736,279.649 85.5,279.5 Z"/></g>
<g><path style="opacity:1" fill="#a61e25" d="M 413.5,45.5 C 413.389,46.1174 413.056,46.6174 412.5,47C 406.865,47.904 401.198,48.404 395.5,48.5C 401.17,46.2972 407.17,45.2972 413.5,45.5 Z"/></g>
<g><path style="opacity:1" fill="#bb0e16" d="M 444.5,51.5 C 444.923,54.8937 446.089,57.2271 448,58.5C 448.666,68.519 448.499,78.519 447.5,88.5C 445.403,96.1656 443.236,103.832 441,111.5C 429.21,140.865 415.876,169.531 401,197.5C 383.682,201.288 366.516,205.621 349.5,210.5C 349.343,209.127 349.51,207.793 350,206.5C 367.327,175.378 382.494,143.212 395.5,110C 394.906,109.536 394.239,109.369 393.5,109.5C 394.172,108.733 395.005,108.066 396,107.5C 396.497,105.19 396.663,102.857 396.5,100.5C 397.586,100.38 398.253,99.7133 398.5,98.5C 402.372,86.446 403.872,74.1126 403,61.5C 402.419,57.2707 400.919,53.4374 398.5,50C 395.445,49.3658 392.445,49.5325 389.5,50.5C 390.99,48.7202 392.99,48.0535 395.5,48.5C 401.198,48.404 406.865,47.904 412.5,47C 413.056,46.6174 413.389,46.1174 413.5,45.5C 422.398,43.769 431.231,44.4357 440,47.5C 441.351,49.0182 442.851,50.3515 444.5,51.5 Z"/></g>
<g><path style="opacity:0.999" fill="#fd0005" d="M 396.5,100.5 C 393.92,93.4618 388.92,90.9618 381.5,93C 317.66,148.009 257.327,206.509 200.5,268.5C 199.094,268.973 198.427,269.973 198.5,271.5C 191.825,278.175 185.492,285.175 179.5,292.5C 178.094,292.973 177.427,293.973 177.5,295.5C 157.44,318.561 138.107,342.228 119.5,366.5C 118.094,366.973 117.427,367.973 117.5,369.5C 109.144,379.703 101.31,390.37 94,401.5C 92.9887,402.337 91.8221,402.67 90.5,402.5C 82.0953,381.291 79.4286,359.291 82.5,336.5C 83.1174,336.389 83.6174,336.056 84,335.5C 84.7601,327.083 85.9268,318.749 87.5,310.5C 88.9238,308.485 89.5905,306.152 89.5,303.5C 90.3443,299.639 91.3443,295.806 92.5,292C 92.3973,287.627 90.3973,284.46 86.5,282.5C 85.6143,281.675 85.281,280.675 85.5,279.5C 89.2857,269.217 93.619,259.551 98.5,250.5C 102.387,250.301 106.387,250.134 110.5,250C 111.833,249 113.167,248 114.5,247C 122.147,233.358 131.314,220.858 142,209.5C 142.772,209.645 143.439,209.978 144,210.5C 151.376,222.085 158.876,233.585 166.5,245C 172.076,246.472 176.909,245.305 181,241.5C 182.163,235.562 182.997,229.562 183.5,223.5C 184.482,219.684 185.149,215.684 185.5,211.5C 186.108,202.079 187.108,192.745 188.5,183.5C 190.492,175.908 191.492,167.908 191.5,159.5C 198.202,153.291 205.202,147.291 212.5,141.5C 221.515,135.993 230.182,129.993 238.5,123.5C 240.323,122.253 242.323,121.586 244.5,121.5C 244.963,124.482 245.296,127.482 245.5,130.5C 244.931,134.329 245.598,137.663 247.5,140.5C 247.5,141.5 247.5,142.5 247.5,143.5C 247.294,146.495 247.96,149.162 249.5,151.5C 254.199,157.275 259.699,157.942 266,153.5C 274.086,133.015 282.252,112.515 290.5,92C 300.192,86.9956 309.859,81.9956 319.5,77C 328.224,72.6411 337.224,68.8078 346.5,65.5C 348.205,64.4647 349.872,64.4647 351.5,65.5C 352.909,64.1515 354.243,62.8181 355.5,61.5C 358.116,59.5168 361.116,58.5168 364.5,58.5C 367.947,57.917 370.947,56.5837 373.5,54.5C 378.585,52.2289 383.918,50.8955 389.5,50.5C 392.445,49.5325 395.445,49.3658 398.5,50C 400.919,53.4374 402.419,57.2707 403,61.5C 403.872,74.1126 402.372,86.446 398.5,98.5C 398.253,99.7133 397.586,100.38 396.5,100.5 Z"/></g>
<g><path style="opacity:1" fill="#ac121d" d="M 373.5,54.5 C 370.947,56.5837 367.947,57.917 364.5,58.5C 367.053,56.4163 370.053,55.083 373.5,54.5 Z"/></g>
<g><path style="opacity:1" fill="#d01019" d="M 355.5,61.5 C 354.243,62.8181 352.909,64.1515 351.5,65.5C 349.872,64.4647 348.205,64.4647 346.5,65.5C 349.053,63.4163 352.053,62.083 355.5,61.5 Z"/></g>
<g><path style="opacity:1" fill="#a21f28" d="M 444.5,51.5 C 445.794,52.2899 446.961,53.2899 448,54.5C 451.383,65.9929 451.216,77.3262 447.5,88.5C 448.499,78.519 448.666,68.519 448,58.5C 446.089,57.2271 444.923,54.8937 444.5,51.5 Z"/></g>
<g><path style="opacity:1" fill="#fd0005" d="M 393.5,109.5 C 394.239,109.369 394.906,109.536 395.5,110C 382.494,143.212 367.327,175.378 350,206.5C 349.51,207.793 349.343,209.127 349.5,210.5C 347.039,211.531 344.373,212.198 341.5,212.5C 339.033,212.755 337.033,213.755 335.5,215.5C 332.607,218.938 331.773,222.938 333,227.5C 334.481,228.471 335.315,229.804 335.5,231.5C 329.007,243.652 321.84,255.319 314,266.5C 313.667,267.833 313.333,269.167 313,270.5C 308.992,275.173 304.992,279.84 301,284.5C 289.786,301.564 277.119,317.564 263,332.5C 262.667,333.5 262.333,334.5 262,335.5C 254.559,342.435 247.726,349.768 241.5,357.5C 234.614,357.397 227.947,358.064 221.5,359.5C 217.78,359.564 214.114,360.064 210.5,361C 202.349,367.712 202.682,373.878 211.5,379.5C 209.849,382.772 207.683,385.772 205,388.5C 200.704,390.969 196.87,393.969 193.5,397.5C 185.007,402.448 176.507,407.448 168,412.5C 161.579,415.471 155.079,418.137 148.5,420.5C 148.5,421.5 148.5,422.5 148.5,423.5C 140.486,423.432 132.486,423.099 124.5,422.5C 120.767,421.387 117.1,420.387 113.5,419.5C 112.486,418.326 111.153,417.66 109.5,417.5C 108.624,417.631 107.957,417.298 107.5,416.5C 147.542,359.802 191.542,306.468 239.5,256.5C 241.587,255.415 242.92,253.749 243.5,251.5C 282.007,210.988 322.007,172.321 363.5,135.5C 365.027,135.573 366.027,134.906 366.5,133.5C 375.526,125.471 384.526,117.471 393.5,109.5 Z"/></g>
<g><path style="opacity:1" fill="#a21622" d="M 366.5,133.5 C 366.027,134.906 365.027,135.573 363.5,135.5C 363.973,134.094 364.973,133.427 366.5,133.5 Z"/></g>
<g><path style="opacity:1" fill="#b2141e" d="M 245.5,130.5 C 246.785,133.589 247.451,136.922 247.5,140.5C 245.598,137.663 244.931,134.329 245.5,130.5 Z"/></g>
<g><path style="opacity:1" fill="#690b16" d="M 247.5,143.5 C 248.768,145.905 249.435,148.572 249.5,151.5C 247.96,149.162 247.294,146.495 247.5,143.5 Z"/></g>
<g><path style="opacity:1" fill="#bf131d" d="M 191.5,159.5 C 191.492,167.908 190.492,175.908 188.5,183.5C 188.789,175.271 189.789,167.271 191.5,159.5 Z"/></g>
<g><path style="opacity:1" fill="#580e13" d="M 341.5,212.5 C 339.967,214.245 337.967,215.245 335.5,215.5C 337.033,213.755 339.033,212.755 341.5,212.5 Z"/></g>
<g><path style="opacity:1" fill="#500910" d="M 185.5,211.5 C 185.149,215.684 184.482,219.684 183.5,223.5C 183.083,219.183 183.75,215.183 185.5,211.5 Z"/></g>
<g><path style="opacity:1" fill="#bc0f16" d="M 335.5,231.5 C 346.122,235.915 357.122,239.582 368.5,242.5C 371.152,243.292 372.318,244.959 372,247.5C 358.404,268.359 344.071,288.693 329,308.5C 316.732,323.604 303.566,337.937 289.5,351.5C 282.764,351.658 276.431,352.658 270.5,354.5C 268.167,354.5 265.833,354.5 263.5,354.5C 257.008,354.994 250.675,355.661 244.5,356.5C 243.791,357.404 242.791,357.737 241.5,357.5C 247.726,349.768 254.559,342.435 262,335.5C 262.333,334.5 262.667,333.5 263,332.5C 277.119,317.564 289.786,301.564 301,284.5C 304.992,279.84 308.992,275.173 313,270.5C 313.333,269.167 313.667,267.833 314,266.5C 321.84,255.319 329.007,243.652 335.5,231.5 Z"/></g>
<g><path style="opacity:1" fill="#b91926" d="M 243.5,251.5 C 242.92,253.749 241.587,255.415 239.5,256.5C 240.08,254.251 241.413,252.585 243.5,251.5 Z"/></g>
<g><path style="opacity:1" fill="#6e0c16" d="M 200.5,268.5 C 200.573,270.027 199.906,271.027 198.5,271.5C 198.427,269.973 199.094,268.973 200.5,268.5 Z"/></g>
<g><path style="opacity:1" fill="#640c16" d="M 179.5,292.5 C 179.573,294.027 178.906,295.027 177.5,295.5C 177.427,293.973 178.094,292.973 179.5,292.5 Z"/></g>
<g><path style="opacity:1" fill="#a70b15" d="M 89.5,303.5 C 89.5905,306.152 88.9238,308.485 87.5,310.5C 87.4095,307.848 88.0762,305.515 89.5,303.5 Z"/></g>
<g><path style="opacity:1" fill="#cd131e" d="M 87.5,310.5 C 85.9268,318.749 84.7601,327.083 84,335.5C 83.6174,336.056 83.1174,336.389 82.5,336.5C 82.7018,327.354 84.3685,318.688 87.5,310.5 Z"/></g>
<g><path style="opacity:1" fill="#7d252f" d="M 289.5,351.5 C 289.389,352.117 289.056,352.617 288.5,353C 282.477,353.359 276.477,353.859 270.5,354.5C 276.431,352.658 282.764,351.658 289.5,351.5 Z"/></g>
<g><path style="opacity:1" fill="#481d25" d="M 263.5,354.5 C 262.737,355.268 261.737,355.768 260.5,356C 255.177,356.499 249.844,356.666 244.5,356.5C 250.675,355.661 257.008,354.994 263.5,354.5 Z"/></g>
<g><path style="opacity:1" fill="#5b0810" d="M 241.5,357.5 C 235.053,358.936 228.386,359.603 221.5,359.5C 227.947,358.064 234.614,357.397 241.5,357.5 Z"/></g>
<g><path style="opacity:1" fill="#730e18" d="M 119.5,366.5 C 119.573,368.027 118.906,369.027 117.5,369.5C 117.427,367.973 118.094,366.973 119.5,366.5 Z"/></g>
<g><path style="opacity:1" fill="#ba0f17" d="M 211.5,379.5 C 218.768,384.81 226.435,389.643 234.5,394C 235.711,394.893 235.711,395.726 234.5,396.5C 208.853,413.667 180.52,422.667 149.5,423.5C 149.167,423.5 148.833,423.5 148.5,423.5C 148.5,422.5 148.5,421.5 148.5,420.5C 155.079,418.137 161.579,415.471 168,412.5C 176.507,407.448 185.007,402.448 193.5,397.5C 196.87,393.969 200.704,390.969 205,388.5C 207.683,385.772 209.849,382.772 211.5,379.5 Z"/></g>
<g><path style="opacity:1" fill="#7e0a12" d="M 109.5,417.5 C 111.153,417.66 112.486,418.326 113.5,419.5C 111.62,419.771 110.287,419.104 109.5,417.5 Z"/></g>
<g><path style="opacity:1" fill="#8c151e" d="M 124.5,422.5 C 132.486,423.099 140.486,423.432 148.5,423.5C 148.833,423.5 149.167,423.5 149.5,423.5C 141.117,424.85 132.784,424.517 124.5,422.5 Z"/></g>
</svg>
